<svg width="25" height="24" viewBox="0 0 25 24" fill="none" xmlns="http://www.w3.org/2000/svg">
<path d="M12.0565 0C5.40659 0 0 5.36892 0 12C0 18.6311 5.40659 24 12.0565 24C18.7064 24 24.113 18.6311 24.113 12C24.113 5.36892 18.7064 0 12.0565 0ZM12.0565 22.7943C6.06593 22.7943 1.20565 17.9717 1.20565 12C1.20565 6.02826 6.06593 1.20565 12.0565 1.20565C18.0471 1.20565 22.9074 6.0471 22.9074 12C22.9074 17.9717 18.0471 22.7943 12.0565 22.7943ZM16.1821 9.00471L15.259 8.10047C15.0895 7.93093 14.8257 7.93093 14.6562 8.10047L12.0565 10.6813L9.45683 8.10047C9.28728 7.93093 9.02355 7.93093 8.854 8.10047L7.93093 9.00471C7.76138 9.17425 7.76138 9.43799 7.93093 9.60754L10.5306 12.1884L7.93093 14.7881C7.76138 14.9576 7.76138 15.2214 7.93093 15.3909L8.854 16.2951C9.02355 16.4647 9.28728 16.4647 9.45683 16.2951L12.0565 13.7143L14.6562 16.2951C14.8257 16.4647 15.0895 16.4647 15.259 16.2951L16.1821 15.3909C16.3516 15.2214 16.3516 14.9576 16.1821 14.7881L13.5824 12.1884L16.1821 9.60754C16.3516 9.43799 16.3516 9.17425 16.1821 9.00471Z" fill="#461F1F"/>
</svg>
