<svg width="25" height="24" viewBox="0 0 25 24" fill="none" xmlns="http://www.w3.org/2000/svg">
<path d="M12.0565 0C5.40659 0 0 5.36892 0 12C0 18.6311 5.40659 24 12.0565 24C18.7064 24 24.113 18.6311 24.113 12C24.113 5.36892 18.7064 0 12.0565 0ZM12.0565 22.7943C6.06593 22.7943 1.20565 17.9717 1.20565 12C1.20565 6.02826 6.06593 1.20565 12.0565 1.20565C18.0471 1.20565 22.9074 6.0471 22.9074 12C22.9074 17.9717 18.0471 22.7943 12.0565 22.7943ZM16.427 8.32653C16.2575 8.15699 15.9937 8.15699 15.8242 8.32653L10.3987 13.7331L7.79906 11.1523C7.62951 10.9827 7.36578 10.9827 7.19623 11.1523L6.29199 12.0565C6.12245 12.2261 6.12245 12.4898 6.29199 12.6593L9.17426 15.5416L9.79592 16.1633L9.94663 16.314L10.0785 16.4458C10.248 16.6154 10.5118 16.6154 10.6813 16.4458L17.3312 9.8336C17.5008 9.66405 17.5008 9.40031 17.3312 9.23077L16.427 8.32653Z" fill="#2A4647"/>
</svg>
